# xmcd
#
# Track frame offsets: 
#        150
#        25085
#        60807
#        83656
#        131818
#        153969
#        169438
#        210255
#
# Disc length: 3107 seconds
#
# Revision: 0
# Processed by: cddbd v1.5.2PL0 Copyright (c) Steve Scherf et al.
# Submitted via: ExactAudioCopy v0.99pb4
#
DISCID=590c2108
DTITLE=The Gathering - Disclosure
DYEAR=2012
DGENRE=Alt. Rock
TTITLE0=Paper Waves
TTITLE1=Meltdown
TTITLE2=Paralyzed
TTITLE3=Heroes for Ghosts
TTITLE4=Gemini I
TTITLE5=Missing Seasons
TTITLE6=I Can See Four Miles
TTITLE7=Gemini II
EXTD=
EXTT0=
EXTT1=
EXTT2=
EXTT3=
EXTT4=
EXTT5=
EXTT6=
EXTT7=
PLAYORDER=
